<?xml version="1.0" encoding="UTF-8" standalone="no"?>
<!-- Created with Inkscape (http://www.inkscape.org/) -->

<svg
   version="1.1"
   id="svg1"
   width="6400"
   height="4266.6665"
   viewBox="0 0 6400 4266.6665"
   sodipodi:docname="vecteezy_simple-abstract-dark-sea-green-color-halftone-blend-wavy_54761691.eps"
   xmlns:inkscape="http://www.inkscape.org/namespaces/inkscape"
   xmlns:sodipodi="http://sodipodi.sourceforge.net/DTD/sodipodi-0.dtd"
   xmlns="http://www.w3.org/2000/svg"
   xmlns:svg="http://www.w3.org/2000/svg">
  <defs
     id="defs1" />
  <sodipodi:namedview
     id="namedview1"
     pagecolor="#ffffff"
     bordercolor="#000000"
     borderopacity="0.25"
     inkscape:showpageshadow="2"
     inkscape:pageopacity="0.0"
     inkscape:pagecheckerboard="0"
     inkscape:deskcolor="#d1d1d1">
    <inkscape:page
       x="0"
       y="0"
       inkscape:label="1"
       id="page1"
       width="6400"
       height="4266.6665"
       margin="0"
       bleed="0" />
  </sodipodi:namedview>
  <g
     id="g1"
     inkscape:groupmode="layer"
     inkscape:label="1">
    <g
       id="group-R5">
      <path
         id="path2"
         d="M 48000,0 H 0 V 32000 H 48000 V 0"
         style="fill:#89d3f0;fill-opacity:1;fill-rule:nonzero;stroke:none"
         transform="matrix(0.13333333,0,0,-0.13333333,0,4266.6667)" />
      <path
         id="path3"
         d="m 52611.4,33190.3 c -58,-435.2 -132.8,-867.2 -217.1,-1298 -4666.3,-162.9 -9272.6,890.2 -13935.4,836.5 -919.3,-10.6 -1837.7,9 -2754.2,-80.9 -843.9,-82.8 -1679.6,-231.7 -2506.9,-415.6 -1567.4,-348.3 -3104.8,-820.1 -4676.4,-1150.2 -758.2,-159.2 -1523.5,-285.3 -2295.3,-356 -839.4,-76.8 -1682.7,-66.2 -2524.6,-64.3 -1816.4,4 -3622.4,331.2 -5398.2,684.3 -1926.6,383.1 -3842.5,832.1 -5787.1,1117.9 -1812.3,266.5 -3650.53,299.4 -5479.39,240.2 -3876.37,-125.4 -7683.224,-994 -11575.02,-858.4 -44.71,443.1 -84.43,886.6 -115.26,1330.9 4026.548,-125.2 8040.91,263.7 12065.61,278.1 1838.17,6.5 3683.46,10.4 5512.66,-188.3 1818.7,-197.6 3621,-518 5429.6,-787.8 1707.9,-254.8 3431.4,-476.3 5161.3,-469.7 1691.8,6.5 3351.5,60.8 5029.8,297.9 1629.5,230.3 3244.2,552.4 4872.1,793 867.3,128.1 1738.5,232.9 2613.5,290.9 922.7,61 1844.5,36.6 2768,55.2 4606.9,92.8 9205.2,-398.6 13812.3,-255.7"
         style="fill:#2c6a9a;fill-opacity:1;fill-rule:nonzero;stroke:none"
         transform="matrix(0.13333333,0,0,-0.13333333,0,4266.6667)" />
      <path
         id="path4"
         d="m 52374.9,31795.4 c -92.9,-455.1 -194.9,-908.1 -301.7,-1360.1 -4804.3,-101.3 -9428.3,1619.6 -14220.8,1682.1 -909.8,11.8 -1817.4,3.2 -2717.6,-143.2 -768.9,-125.1 -1522.2,-330.6 -2259.4,-580.5 -1434.5,-486.2 -2808,-1135.7 -4248.7,-1604.7 -1542.6,-502.1 -3098.4,-696.1 -4718,-644.4 -1918.6,61.2 -3815.5,525.8 -5666.5,1000.5 -2053.7,526.8 -4091.1,1130.3 -6171.5,1546.6 -1860.4,372.3 -3743.18,502.1 -5635.86,339.4 -1689.77,-145.3 -3331.89,-555.9 -4977.65,-945.2 -1920.104,-454.1 -3844.3,-788.2 -5824.97,-745.8 -56.73,468.2 -110.89,936.7 -160.15,1405.8 2050.98,-70.5 4085.813,117.8 6118.4,373.6 1806.02,227.2 3611.04,473.5 5432.28,536.5 1835.76,63.4 3679.65,23.8 5497.65,-251.6 1958.1,-296.5 3886.6,-757.3 5826.6,-1149.6 1748.8,-353.5 3527.6,-680.5 5317.5,-693.6 842.4,-6.1 1687.9,-14.2 2527.9,62.6 804.4,73.5 1601.6,209.8 2390.4,382.5 1533,335.6 3032.1,806.7 4561.1,1158.8 824.1,189.8 1657.2,344.1 2498.8,431.1 916.7,94.7 1834.8,76.4 2754.7,86.7 4678.7,52.5 9295.1,-1048.8 13977.5,-887.5"
         style="fill:#2c6a9a;fill-opacity:1;fill-rule:nonzero;stroke:none"
         transform="matrix(0.13333333,0,0,-0.13333333,0,4266.6667)" />
      <path
         id="path5"
         d="m 52040.1,30296.6 c -110.3,-458.3 -224.5,-915.7 -339.6,-1372.8 -4980.6,11.4 -9594,2431.1 -14549.3,2659.6 -861.4,39.8 -1717.7,-1.8 -2559,-202 -759.2,-180.8 -1485.1,-474.1 -2180.2,-826 -1258.4,-637 -2415.7,-1455.6 -3685.5,-2071.3 -1406.4,-682 -2899.4,-1015.1 -4464.6,-919.8 -2078.6,126.6 -4120.4,757 -6096.7,1373.1 -2218.4,691.6 -4414.5,1469.5 -6669.7,2037 -1892.47,476.2 -3806.29,752.1 -5749.7,444.8 -1593.25,-252 -3070.64,-874.8 -4560.25,-1465.3 -1731.405,-686.3 -3478.54,-1177.3 -5355.52,-1181.8 -61.06,474.6 -121.68,949.3 -180.24,1424.3 1972.13,-38.5 3882.136,310.7 5787.61,786.1 1630.71,407 3257.32,835.7 4936.17,990 1897.48,174.5 3782.63,33.3 5646.13,-348.8 2096.2,-429.7 4147.9,-1049 6216.4,-1590.6 1860.6,-487.2 3768.7,-965.9 5699.7,-1033.2 1614.7,-56.2 3165,149 4696.8,667 1427.9,482.9 2784.5,1149.8 4205.7,1650.3 730.6,257.2 1478,469.1 2242.3,598.7 897.3,152.2 1802.7,164.1 2710.5,149.6 4806.1,-76.5 9430,-1861.3 14249,-1768.9"
         style="fill:#2c6a9a;fill-opacity:1;fill-rule:nonzero;stroke:none"
         transform="matrix(0.13333333,0,0,-0.13333333,0,4266.6667)" />
      <path
         id="path6"
         d="m 51655.5,28745.2 c -112.4,-446.3 -224.7,-892.6 -334.1,-1339.7 -2674.6,70.9 -5259.6,1002.2 -7770.4,1842.8 -2308.4,772.9 -4668.8,1617.9 -7113.2,1811.6 -1622.8,128.6 -3094.6,-361.5 -4409.9,-1298 -1131,-805.2 -2099.3,-1816.2 -3245.7,-2601.3 -1275.2,-873.4 -2725.2,-1330.2 -4276.1,-1176.2 -2203.7,218.8 -4350.6,1000.6 -6420.9,1745.4 -2385.5,858.2 -4742.6,1810.4 -7174.3,2533.7 -1064.77,316.8 -2150.98,595.4 -3256.93,720 -877.07,98.7 -1749.74,38.7 -2607.84,-168.8 C 3564.05,30456.3 2293.37,29641 1005.71,28860.3 314.246,28441 -392.387,28043 -1148.08,27750.3 c -905.11,-350.6 -1851.54,-526.3 -2820.66,-554 -58.04,463.6 -117.65,927 -177.34,1390.3 1868.5,10.3 3595.846,521.1 5305.32,1236.1 1468.11,614.1 2922.93,1261.5 4503.83,1526.3 1948.83,326.5 3868.06,30.3 5763.73,-457.7 2276.2,-585.9 4491.4,-1384.6 6729.8,-2095.9 1989.4,-632.2 4046.3,-1281.8 6142.1,-1417.7 1559.6,-101.1 3045.9,248.2 4434.9,951.4 1253.5,634.5 2387.8,1474.8 3629.2,2131 684.9,362 1402.5,664.6 2155.7,852 837.2,208.3 1690.3,253.8 2549.4,210.6 4975.3,-250 9585.1,-2751.3 14587.6,-2777.5"
         style="fill:#2c6a9a;fill-opacity:1;fill-rule:nonzero;stroke:none"
         transform="matrix(0.13333333,0,0,-0.13333333,0,4266.6667)" />
      <path
         id="path7"
         d="m 51269.8,27192.6 c -100.9,-420.4 -198.2,-841.6 -288.7,-1264.4 -2781.9,120.6 -5437.9,1299.5 -7984.7,2324.3 -2304.1,927.1 -4681,1956.5 -7174.1,2223.8 -1625.6,174.2 -3036.1,-451.4 -4193.8,-1568.1 -1007,-971.4 -1789.5,-2152.3 -2828.3,-3092.8 -1103.2,-999 -2461,-1552.8 -3959.6,-1376.7 -2319.8,272.5 -4570.4,1194.4 -6724.3,2050.1 -2562.6,1018 -5089.2,2142 -7705.5,3019 -1119.16,375.1 -2264.7,714.7 -3436.71,876.1 -878.47,121 -1736.27,51.2 -2580.52,-226.2 C 2964.48,29688.1 1877.16,28664.5 758.238,27707 168.504,27202.3 -445.406,26718.3 -1136.45,26358.5 c -827.64,-430.9 -1721.98,-646.6 -2651.65,-691.1 -48.04,436.4 -99.67,872.4 -153.24,1308.1 964.24,30.9 1903.95,213.6 2798.67,577.8 746.553,303.8 1440.143,715.8 2117.498,1149.2 1261.372,806.9 2504.802,1650.5 3975.962,2024.1 855.52,217.3 1724.48,279.1 2600.8,176.7 1114.48,-130.3 2208.22,-417.5 3279.91,-742.5 2456,-744.9 4835.4,-1721 7243.9,-2602.2 2085.3,-762.8 4249.4,-1566.5 6472.8,-1796.3 1548.2,-160 2988.9,313.6 4242.7,1211.9 1127.8,808 2068,1843.1 3179.6,2671.4 1290.7,961.8 2752.5,1472.3 4371.6,1336.9 2455.9,-205.3 4822.9,-1080.3 7134.9,-1878.1 2513.5,-867.5 5105.8,-1832.6 7792.8,-1911.8"
         style="fill:#2c6a9a;fill-opacity:1;fill-rule:nonzero;stroke:none"
         transform="matrix(0.13333333,0,0,-0.13333333,0,4266.6667)" />
      <path
         id="path8"
         d="m 50931.5,25690 c -77.3,-382.1 -147.6,-765.1 -206.8,-1150.4 -1389.8,62.4 -2736.7,453.6 -4034.9,933 -1373.1,507 -2704.7,1119.7 -4036,1725.9 -2327.7,1060.1 -4756.3,2272.1 -7328.8,2572.3 -826.1,96.4 -1629.6,0 -2377,-381.4 -637.7,-325.4 -1164.7,-822.2 -1615.2,-1372 -898.6,-1096.4 -1519.1,-2394.6 -2453.3,-3464 -992,-1135.4 -2305.1,-1751.7 -3824.7,-1557.5 -1115.8,142.6 -2205.8,474.4 -3266.1,840.3 -1274.3,439.7 -2522.5,952.7 -3762.4,1480.7 -2675.7,1139.2 -5311.5,2389.4 -8049.43,3376.1 -1154.42,416 -2340.22,799.8 -3558.04,977.1 -872.22,126.9 -1730.33,52.2 -2552.19,-278.7 -1368.15,-551 -2282.97,-1716.9 -3232.46,-2788 -513.774,-579.6 -1057.407,-1143.7 -1710.11,-1568.4 -777.1,-505.6 -1654.43,-749.3 -2576.07,-795.1 -31.42,394.4 -68.78,788.2 -109.75,1181.8 927.63,46 1819.55,268.1 2637.34,714 683.847,372.8 1285.207,871.6 1861.57,1391 1093.24,985.1 2154.8,2039.3 3581.66,2520.7 848.44,286.2 1705.58,349.6 2589.2,222.2 1184.74,-170.7 2342.24,-522.3 3472.28,-908.5 2589.3,-885 5090.9,-2007.4 7626.6,-3031.1 1218,-491.8 2443.9,-968.6 3693.8,-1373.9 1035.7,-335.8 2096.7,-634.9 3180.1,-765.5 1518.8,-183 2880.6,403.1 3967.9,1445.2 994.1,952.8 1737.6,2128.3 2702.9,3107.6 1126.5,1142.9 2524.5,1803.8 4150.9,1628.8 2508.4,-270 4896.6,-1331.8 7205.6,-2283.9 2553.3,-1052.7 5222.8,-2272.6 8023.4,-2398.3"
         style="fill:#2c6a9a;fill-opacity:1;fill-rule:nonzero;stroke:none"
         transform="matrix(0.13333333,0,0,-0.13333333,0,4266.6667)" />
      <path
         id="path9"
         d="m 50689.1,24288.9 c -42.9,-333 -75.6,-666 -91.7,-1001.5 -1404.5,32.3 -2763.5,454.2 -4061,965.4 -1372.5,540.7 -2697.2,1195.4 -4021.2,1843.6 -1314.1,643.2 -2628.7,1293 -3989.9,1832.1 -1101.7,436.4 -2250.4,814.7 -3434,941.3 -840.4,89.9 -1687.3,12.8 -2436.9,-404.5 -601.9,-335.2 -1079.3,-842.3 -1476.4,-1398.2 -852.3,-1193.4 -1361.5,-2599.6 -2256.8,-3764.8 -395.1,-514.3 -870.7,-970.6 -1454.1,-1264.5 -713.8,-359.6 -1508.5,-426.9 -2292.8,-334.4 -1131.5,133.3 -2236.2,486 -3304.8,868.5 -1285.4,460 -2542.7,996.7 -3790.9,1548.5 -2796.1,1236 -5545.8,2598.9 -8414.37,3663.5 -1845.24,684.9 -4094.07,1520.3 -6033.82,717 -1380.55,-571.8 -2197.5,-1856.1 -3048.906,-3010.3 -462.602,-627.1 -959.856,-1244.9 -1594.224,-1707.3 -757.62,-552.2 -1641.7,-792 -2571.71,-814.9 -8.57,338.9 -25.96,677.2 -48.67,1015.4 923.02,43.6 1800.1,290 2571.19,807.9 647.969,435.2 1180.754,1012.8 1682.973,1604.5 927.507,1092.7 1821.107,2286.1 3192.467,2843.2 825.66,335.3 1689.4,400.6 2565.29,269.7 1228.16,-183.6 2423.69,-577.6 3586.55,-1002.6 2734.03,-999.3 5366.53,-2257.6 8038.63,-3406.9 1276.6,-549 2562,-1082.9 3875.8,-1537.3 1040.3,-359.8 2109.9,-685.8 3205.1,-825.6 1527.4,-194.9 2834.2,424.6 3811.2,1584.2 910.6,1080.5 1503.9,2383.9 2374.1,3494.1 438.9,560 957.2,1069.8 1591.1,1404.7 761,402 1587.2,494.5 2432.6,392.4 2591.4,-313.1 5032,-1560.9 7369.9,-2644.6 1311.3,-607.9 2623.6,-1220.7 3977.4,-1729.6 1300.5,-488.7 2652.1,-889.2 4047.9,-949"
         style="fill:#2c6a9a;fill-opacity:1;fill-rule:nonzero;stroke:none"
         transform="matrix(0.13333333,0,0,-0.13333333,0,4266.6667)" />
      <path
         id="path10"
         d="m 50591.3,23040.6 c -0.2,-290.4 6.2,-580.4 18.1,-870.6 -1411.4,21.4 -2774.2,433.1 -4075,955.1 -1343.4,539.2 -2634.7,1199.4 -3924.8,1853.2 -1280.4,648.7 -2561.7,1304 -3893.9,1841.7 -1098.3,443.3 -2246.4,817.4 -3430.3,935.3 -836.9,83.4 -1668.9,17.4 -2417,-395.3 -613.8,-338.5 -1107.7,-849.2 -1528.3,-1402.7 -914.9,-1204.1 -1512.2,-2621 -2467,-3797.1 -414.8,-510.9 -903.1,-970.6 -1496.1,-1267.2 -710.2,-355.3 -1495,-411.7 -2274.6,-329.5 -1134.5,119.7 -2242.2,470.6 -3309.7,859.5 -1264.1,460.6 -2496.7,1004.9 -3718.7,1566.2 -2730.8,1254.2 -5409.3,2647.6 -8222.21,3714 C 8015.06,27399.6 5753.47,28207.9 3818.33,27414 2417.51,26839.3 1554.4,25543.1 662.289,24391.2 175.195,23762.3 -344.359,23141.7 -995.746,22675.7 -1754.3,22133.1 -2629.71,21887.8 -3557.02,21872 c -15.92,282.9 -23.46,565.3 -24.14,848.6 933.28,14.1 1822.72,247 2581.582,804.2 633.414,465.1 1124.781,1089.4 1580.476,1722.1 838.292,1164.1 1641.332,2465 3026.822,3034.2 1936.47,795.5 4193.39,-32.7 6032.95,-717.1 2879.93,-1071.5 5638.53,-2447 8444.33,-3693 1251.4,-555.7 2512,-1096.3 3801.3,-1558.7 1065.6,-382.1 2169,-735.6 3298.6,-862.4 782.6,-87.8 1584.5,-28.2 2298.1,328.4 584.9,292.2 1059.1,750.7 1450.7,1268 889.5,1175.1 1381.7,2593.1 2227,3796.6 392.8,559.3 868.1,1069.5 1471.4,1403.5 750.9,415.6 1605.9,482.8 2446,398 1183.8,-119.5 2332.7,-499.1 3432.8,-937.2 1364,-543.2 2680,-1199.8 3995.5,-1849.5 1325.3,-654.7 2651.4,-1316.3 4026.8,-1861.1 1295.1,-512.9 2654.3,-936 4058.1,-956"
         style="fill:#2c6a9a;fill-opacity:1;fill-rule:nonzero;stroke:none"
         transform="matrix(0.13333333,0,0,-0.13333333,0,4266.6667)" />
      <path
         id="path11"
         d="m 50622.7,21907.3 c 16.5,-275.8 37.4,-551.2 62,-826.4 -2759.2,45.1 -5284.7,1500.5 -7651.3,2770.6 -2173.6,1166.4 -4468.1,2489.7 -6970.4,2738.9 -853.9,85 -1681.4,2.7 -2452.7,-394.1 -664.8,-342 -1227,-849.7 -1728,-1398.2 -1093.8,-1197.5 -1921,-2615 -3048.1,-3783.9 -486.9,-505 -1035.2,-962.9 -1673.8,-1263.2 -728.1,-342.5 -1510.8,-413.1 -2304.1,-329.4 -1104.6,116.5 -2179.6,466.9 -3210.8,866.2 -1191.8,461.5 -2348,1012.1 -3491.3,1581.7 -2545.4,1267.9 -5030.6,2684.6 -7670.8,3751.7 -1827.57,738.6 -3998.89,1477.1 -5939.01,720.2 -1470.83,-573.8 -2481.27,-1847.7 -3511.86,-2981.1 -564.159,-620.5 -1156.37,-1230.6 -1862.018,-1691.7 -793.582,-518.5 -1683.082,-778 -2629.302,-795.8 -32.66,250.4 -59.7,500.8 -80.91,752.4 929.15,16.5 1804.55,265.8 2568.137,802.9 661.512,465.3 1195.399,1083.7 1697.899,1710.8 919.514,1147.6 1812.184,2439.4 3224.724,3014.8 1936.05,788.5 4184.41,-7.5 6019.91,-711.4 2778.93,-1065.7 5418.93,-2464.5 8112.93,-3721.5 1206.8,-563.1 2424.7,-1108.7 3675,-1569.2 1062.6,-391.3 2166.1,-741.7 3297.1,-860.3 781.2,-81.9 1563.2,-23.5 2275.6,329.8 600.4,297.8 1099.3,757.3 1527.7,1266.6 988.3,1174.7 1632.9,2591.6 2582.9,3794.4 435.9,552.1 942.2,1062.3 1564.5,1401.9 751.2,410.1 1579.1,478.6 2418.1,395 2585.5,-257.5 4988.4,-1606.4 7259.5,-2770.1 2457.9,-1259.4 5104.1,-2757 7938.4,-2801.6"
         style="fill:#2c6a9a;fill-opacity:1;fill-rule:nonzero;stroke:none"
         transform="matrix(0.13333333,0,0,-0.13333333,0,4266.6667)" />
      <path
         id="path12"
         d="m 50712.3,20796.2 c 27.4,-263.2 57.4,-526 89.6,-788.7 -2615.7,39.8 -4930.9,1439.3 -7123,2720.4 -1995.5,1166.3 -4100.9,2451.2 -6453.4,2676.1 -850.2,81.3 -1668.5,-18.2 -2453.7,-363 -790.6,-347.2 -1488.5,-876.9 -2129.5,-1448.4 -1313.2,-1170.8 -2420.6,-2554.2 -3757.8,-3699.4 -615.7,-527.2 -1287.3,-1008.1 -2041,-1317.3 -751.2,-308.1 -1540,-397.4 -2345.1,-307.5 -1021.5,114.1 -2009.5,454.5 -2951.6,853.2 -1143.3,483.9 -2240.4,1072.2 -3321.4,1680.5 -2246.9,1264.3 -4428.9,2672.8 -6784.3,3732.8 -1806.56,812.9 -3836.85,1457.9 -5787.88,770.9 -1594.41,-561.4 -2804.54,-1807.7 -4024.7,-2921.7 -668.887,-610.8 -1361.383,-1209 -2148.809,-1663.5 -857.791,-495 -1794.551,-764.2 -2785.581,-781 -42.35,226.7 -81.51,453.7 -116.92,681.6 955.41,17.7 1854.72,279.8 2662.552,791.9 724.656,459.3 1340.984,1065.8 1930.468,1683.6 1076.34,1128.1 2134.74,2394.8 3632.62,2967.1 1941.25,741.6 4076.52,28.7 5899.35,-725.5 2582.8,-1068.7 5004.1,-2491.9 7488.1,-3764.2 1116.8,-571.9 2246.9,-1124.6 3414.1,-1586.9 1015.3,-402.2 2075.7,-753 3166.6,-869.3 799.3,-85.2 1585.8,-8.6 2321.8,328.8 656.4,301 1226.5,758 1738.4,1261.8 1185.4,1166.5 2085.6,2584.2 3239.3,3779.6 528.4,547.4 1115.1,1054 1799.5,1396.5 781.2,391 1612.8,479.6 2474.2,393.8 2465.6,-245.5 4713.7,-1558.9 6844.5,-2725.3 2324.9,-1272.7 4799.2,-2712.6 7523.6,-2756.9"
         style="fill:#2c6a9a;fill-opacity:1;fill-rule:nonzero;stroke:none"
         transform="matrix(0.13333333,0,0,-0.13333333,0,4266.6667)" />
      <path
         id="path13"
         d="m 50841,19699.9 c 33.1,-252.3 67.5,-504.4 102.5,-756.5 -4730.3,59.3 -7674.9,4818.8 -12286.9,5257.3 -1912.1,181.9 -3587.8,-708.5 -5090.3,-1801.8 -1598.7,-1163.3 -3029.7,-2541.3 -4647.8,-3679.2 -1420.3,-998.8 -3054.3,-1829.9 -4840.2,-1611.7 -2055.6,251.1 -3938.5,1467.6 -5632.3,2577.3 -1959.5,1283.9 -3841.6,2717.7 -5930.7,3791.1 -914.9,470.1 -1887.3,877.4 -2910.27,1033 -887.28,135 -1796.41,40.7 -2650.14,-229 C 3276.14,23118 986.016,19099.5 -3121.18,19044.6 c -45.83,211.1 -90.65,422.4 -133.67,634.1 2019.73,32.5 3609.221,1155.2 5080.69,2427.4 1280.3,1106.9 2552.5,2344.1 4187.87,2902.7 1948.8,665.7 3931.06,56.8 5725.69,-779.9 2280.8,-1063.4 4379.4,-2479.2 6546.1,-3749 1863.3,-1092 3909.3,-2295.8 6096.3,-2545.8 1719.6,-196.5 3206.1,567.3 4510.8,1621.3 1414.9,1143.1 2613.6,2525.2 4006.2,3693.7 679.6,570.3 1412.7,1098.3 2233.5,1446.1 798.2,338.3 1628.3,444.9 2489,362.7 4882.4,-466.2 8228.5,-5285.4 13219.7,-5358"
         style="fill:#2c6a9a;fill-opacity:1;fill-rule:nonzero;stroke:none"
         transform="matrix(0.13333333,0,0,-0.13333333,0,4266.6667)" />
      <path
         id="path14"
         d="m 50990,18611.3 c 34.1,-243.1 68.3,-486.2 101.8,-729.4 -2255.1,20.8 -4044.1,1272.2 -5777.1,2575.1 -1545.9,1162.3 -3172.3,2348.8 -5159.9,2536.5 -2035.2,192.3 -3936.1,-761.9 -5624.9,-1791.8 -1897.3,-1157.1 -3657.2,-2526.2 -5570.4,-3658.3 -1572.5,-930.3 -3435.9,-1852.5 -5319.2,-1597.8 -1873,253.4 -3515.5,1489.7 -4959.9,2623.3 -1660.8,1303.4 -3228,2761.7 -5045.1,3851.4 -806,483.4 -1678.9,896.1 -2612.2,1053.4 -898.5,151.4 -1836.56,32.7 -2707.56,-213.9 -3994.29,-1131.2 -6890.79,-5058.6 -11243.16,-5099.5 -43.69,202.7 -88.23,405.3 -132.87,607.8 4180.61,50.5 6665.9,4040.8 10441.97,5193 859.45,262.2 1777.12,364.2 2668.12,224.3 994.6,-156.2 1935.8,-565.2 2816.8,-1039.4 2003.3,-1078.3 3787.2,-2519.9 5653.2,-3810 1616.1,-1117.4 3424.2,-2339.9 5421.4,-2591.8 1816.3,-229 3520.8,631.4 4990.4,1607.4 1710.3,1135.8 3244.9,2511.4 4937,3672.6 1562.1,1072.1 3308.1,1983.8 5257.9,1798.7 4491.4,-426.2 7249.1,-5158.5 11863.7,-5211.6"
         style="fill:#2c6a9a;fill-opacity:1;fill-rule:nonzero;stroke:none"
         transform="matrix(0.13333333,0,0,-0.13333333,0,4266.6667)" />
      <path
         id="path15"
         d="m 51140.3,17523.2 c 31,-235.5 60.9,-471.1 89.1,-706.9 -1075.2,6.9 -2087.9,293.3 -3010,845.3 -778.2,465.9 -1459.4,1070.8 -2137.1,1668.6 -1329.2,1172.7 -2725.1,2300 -4559.8,2464.6 -2163,194 -4278.5,-823.3 -6137.4,-1809 -2183,-1157.5 -4252.7,-2517.9 -6453.1,-3643.7 -952.1,-487.2 -1933,-935.5 -2959.2,-1243.6 -875.9,-262.9 -1828.4,-447.9 -2743.5,-312.3 -1700.3,251.9 -3102.8,1487.2 -4300.4,2631.6 -1384,1322.4 -2649.6,2806.7 -4217,3922.1 -718.9,511.5 -1520.8,942 -2397.5,1098 -890,158.3 -1839.1,20.9 -2706.67,-200 -2106.02,-536.2 -3989.93,-1708 -5872.57,-2751 -2004.68,-1110.7 -4136.984,-2212.7 -6483.26,-2227.8 -36.58,200.6 -75.51,400.7 -116.25,600.5 4447.81,36.6 7536.16,3948.3 11649.32,5061.3 858.77,232.3 1788.73,356.4 2672.93,208 928.1,-155.8 1789.9,-583.6 2576.8,-1085.7 1729.9,-1103.9 3193.9,-2573.9 4762.1,-3884.9 1350.3,-1128.9 2900.2,-2352.9 4698.6,-2604.5 1895.5,-265.2 3818.2,666.2 5423.5,1563.8 2017.2,1128 3887.4,2496.3 5885.1,3656.7 1751.4,1017.3 3731.8,2002.8 5815.9,1815.2 1936.1,-174.3 3485.8,-1341.1 4958.5,-2507.6 766,-606.7 1535.3,-1219.6 2391.6,-1696.1 981.6,-546.2 2044.2,-853.4 3170.3,-862.6"
         style="fill:#2c6a9a;fill-opacity:1;fill-rule:nonzero;stroke:none"
         transform="matrix(0.13333333,0,0,-0.13333333,0,4266.6667)" />
      <path
         id="path16"
         d="m 51273.1,16428.4 c 24.1,-229.3 46,-458.7 65.5,-688.5 -1016.6,5.7 -1979.1,260.3 -2829.1,825.9 -680.1,452.5 -1246.9,1046.5 -1809,1633.2 -536.7,560.1 -1078.7,1124 -1721.3,1564.8 -699,479.7 -1498.3,770.8 -2343.3,846.3 -997.4,89.2 -1995.6,-93.1 -2950.3,-372.3 -1231.1,-360 -2413.2,-877.8 -3569.2,-1428.7 -2423.4,-1154.8 -4750.5,-2502.5 -7188.7,-3627.1 -1042.8,-481 -2109.8,-927 -3217.1,-1237.7 -897.1,-251.7 -1883.3,-455.2 -2816.7,-309.6 -1595.9,249 -2811.6,1493.4 -3815.3,2664.7 -1145.1,1336.4 -2147.6,2840.5 -3513.1,3970.2 -636.5,526.5 -1369.5,958 -2189.8,1112.1 -897.2,168.6 -1867.7,16.3 -2745.2,-192.4 -2244.97,-533.8 -4300.83,-1678.1 -6352.84,-2694.9 -2148.38,-1064.5 -4435.176,-2167.5 -6883.19,-2181 -25.13,203.9 -53.72,407.1 -85.52,610.1 2387.409,13.9 4581.34,1115.7 6644.1,2209 1949.18,1033.1 3900.71,2194.4 6061.15,2729 871.7,215.7 1829.8,359.2 2722.7,196.4 852.8,-155.4 1626.4,-587 2311.9,-1103.8 1487.2,-1121.3 2651.4,-2612.8 3942.5,-3940.8 1121.2,-1153.4 2449.9,-2393.5 4105.7,-2644.9 922.9,-140.2 1890.3,52.8 2775.2,311 1058.7,308.9 2073.9,756.3 3062.3,1241.2 2292.9,1125.1 4462.9,2481 6739.5,3637.3 1910.4,970.4 4091,2003 6292.8,1805.8 1786.9,-160 3106.4,-1265 4362.9,-2443.3 632.8,-593.4 1269.6,-1194 2009.1,-1654.8 892.9,-556.3 1883.4,-831 2934.3,-837.2"
         style="fill:#2c6a9a;fill-opacity:1;fill-rule:nonzero;stroke:none"
         transform="matrix(0.13333333,0,0,-0.13333333,0,4266.6667)" />
      <path
         id="path17"
         d="m 51369.5,15319.9 c 13.8,-224.5 24.7,-448.9 32.5,-673.6 -991.7,7.8 -1945.9,234 -2759.8,818.4 -616,442.2 -1102.3,1029.1 -1582.7,1608.8 -458.6,553.3 -923.7,1110.2 -1504.1,1541.4 -661.5,491.4 -1440.9,763.8 -2259.2,837.2 -1003.2,89.9 -2003.1,-98.3 -2965.1,-371.3 -1286.7,-365 -2528.8,-880.8 -3748.8,-1424.5 -2591.1,-1154.9 -5099.1,-2488.8 -7703.1,-3615.5 -1096.9,-474.6 -2214.3,-919.2 -3368.8,-1234.2 -904,-246.7 -1892.1,-454.7 -2831.5,-310.5 -1558.5,239.3 -2660.4,1473 -3540.8,2683.4 -978.6,1345.5 -1788.5,2867.5 -3025.9,4003.4 -593,544.4 -1297.6,969.6 -2096.8,1118.5 -902.6,168.2 -1877.2,10.9 -2760.7,-193.2 C 8918.53,19568.5 6748.43,18446 4583.58,17450.4 2356.25,16426.2 -23.6758,15315.2 -2522.8,15295.5 c -9.99,212 -24.1,423.4 -42.42,634.8 2475.0716,14.8 4806.29,1119.7 6994.05,2168 2103.4,1007.9 4211.32,2143 6498.37,2678 880.3,205.9 1855,361.5 2754.4,191.5 807.5,-152.6 1523.7,-582.6 2137.9,-1115.7 1305.9,-1133.5 2224.1,-2644.5 3294.7,-3985 945.9,-1184.4 2107.2,-2427.8 3679.9,-2674 937.3,-146.7 1928.8,60.5 2830.5,309.5 1130.3,312 2221.8,757.4 3290.5,1236 2512.4,1124.9 4919.9,2467.4 7418.3,3621.9 1186.2,548.1 2397,1065 3654.8,1426.7 960.6,276.2 1963.5,461.5 2966,371.9 830.5,-74.3 1617.4,-357.8 2297.3,-841.3 614.1,-436.8 1121.8,-997.4 1623.8,-1554.4 525.8,-583.3 1056.7,-1174 1707.4,-1622.2 830.9,-572.2 1784.5,-815.2 2786.8,-821.3"
         style="fill:#2c6a9a;fill-opacity:1;fill-rule:nonzero;stroke:none"
         transform="matrix(0.13333333,0,0,-0.13333333,0,4266.6667)" />
      <path
         id="path18"
         d="m 51410.7,14190.5 c 0.6,-218.9 -3.1,-437.4 -11.4,-656.1 -993,8.1 -1951.3,230.8 -2765.4,818.6 -611.2,441.4 -1090.6,1028.1 -1563.8,1607.8 -451.8,553.3 -910.3,1110.1 -1486,1540.5 -660.7,493.9 -1441.9,764 -2260.5,837.2 -1002.3,89.7 -1999.6,-98.8 -2960.7,-371.6 -1288.7,-365.9 -2533.3,-881.4 -3756.1,-1424.1 -2601.7,-1154.7 -5121.5,-2486.4 -7735.7,-3613.2 -1099.1,-473.8 -2218.4,-918.2 -3374.3,-1233.9 -902.1,-246.4 -1886.7,-454 -2824.4,-313.2 -1561.1,234.5 -2660.9,1473 -3537.2,2686.8 -974.7,1350.2 -1778.7,2878.4 -3015.2,4017.9 -592.1,545.6 -1296.8,970.8 -2096.7,1117.3 -903.3,165.5 -1879,9 -2763,-195.1 C 8924,18469.9 6754.09,17346.6 4589.48,16350.4 2362.1,15325.3 -18.0977,14213.8 -2517.76,14195.2 c 4.74,218.3 7.08,436.5 6.26,654.9 2499.8516,25.4 4895.31,1142.7 7131.12,2152 2190.14,988.7 4385.77,2104.3 6740.38,2649.7 884.9,205 1854,360.7 2758.5,196.7 803,-145.5 1511.4,-565.4 2102,-1118.1 1211.8,-1133.9 1970.3,-2663.6 2907.8,-4011.4 857.4,-1232.8 1942.9,-2452.9 3508,-2685.7 937.2,-139.5 1913.7,65.5 2815.4,312.2 1160.7,317.6 2285.4,761.9 3390.9,1233.7 2644.5,1128.8 5198.2,2456.7 7830.5,3612.6 1231.3,540.6 2483.2,1055.8 3778.4,1423.9 956.9,271.9 1946.2,460.7 2944.2,370.8 818.6,-73.7 1602.5,-339.7 2261.3,-837.4 566.7,-428.2 1012.8,-983.5 1451.8,-1535.8 459.9,-578.6 926.3,-1164 1528.3,-1602.9 813.7,-593.4 1779.2,-810 2773.6,-819.9"
         style="fill:#2c6a9a;fill-opacity:1;fill-rule:nonzero;stroke:none"
         transform="matrix(0.13333333,0,0,-0.13333333,0,4266.6667)" />
      <path
         id="path19"
         d="m 51370.8,13053.7 c -16.4,-206.8 -36.2,-413.2 -58.9,-619.5 -1013.1,6.2 -1978.7,250.9 -2819.4,828.3 -658.7,452.3 -1197.5,1046.5 -1732.1,1634.1 -509.9,560.5 -1026.5,1125.2 -1650.3,1562.3 -661.8,463.5 -1421,744.3 -2224.6,828.5 -1039.1,108.9 -2080.5,-84 -3075.2,-376.2 -1189.9,-349.5 -2336.4,-840 -3459.5,-1361.9 -2474.6,-1150 -4853.5,-2495.3 -7336.6,-3627.7 -1104.5,-503.6 -2234.3,-973.5 -3407.1,-1294.4 -877.5,-240 -1837.2,-433.7 -2748.3,-295.5 -1606.2,243.7 -2814.9,1518.9 -3805.9,2706.7 -1135.5,1360.9 -2124.5,2893.5 -3492.5,4041 -620.4,520.5 -1336.9,947.3 -2140.6,1101.2 -918.4,175.9 -1917.4,16.4 -2814.8,-200.7 C 8357.44,17436 6303.15,16280.7 4248.84,15257.7 2122.05,14198.6 -142.379,13112.3 -2567.93,13101.1 c 13.07,205.1 24.39,410.2 33.81,615.4 2485.1903,14 4832.65,1121.3 7034.08,2164.9 2121.88,1005.8 4248.6,2139.2 6551.44,2674.7 881.7,205 1859.5,360.7 2760.6,194.4 804.4,-148.4 1514.8,-579 2118.4,-1118.2 1280.7,-1144 2154.1,-2671.5 3187.6,-4024.6 914.9,-1197.9 2050.8,-2452.4 3620.7,-2690.1 936.4,-141.9 1924.6,66.2 2825.2,313.4 1143.5,313.8 2249.4,758.5 3333.8,1234.3 2564.3,1125.1 5029.4,2461 7580.5,3614.7 1205.2,545.1 2433.4,1061 3707.1,1424.6 961.4,274.6 1962.2,461.7 2965.2,372.3 823.9,-73.5 1607.3,-349.5 2276.2,-839.3 592.1,-433.6 1071.5,-992.7 1544.6,-1548.2 495.6,-581.9 996.8,-1171.1 1624.9,-1615.8 821.3,-581.6 1777.3,-813.1 2774.6,-819.9"
         style="fill:#2c6a9a;fill-opacity:1;fill-rule:nonzero;stroke:none"
         transform="matrix(0.13333333,0,0,-0.13333333,0,4266.6667)" />
      <path
         id="path20"
         d="m 51248.5,11933.2 c -27.2,-195.7 -56.9,-391.1 -88.8,-586.1 -1057.4,7.2 -2057.6,277.7 -2952.5,845.7 -730.6,463.7 -1354.4,1068.1 -1974.6,1666 -1214.8,1171.1 -2491.1,2254.7 -4236.8,2438.4 -2177.7,229.1 -4340.3,-785.2 -6232.5,-1740.3 -2277.3,-1149.4 -4445.9,-2502.5 -6732.9,-3633.6 -1027.1,-508 -2083.1,-978.8 -3186.3,-1296.6 -861.5,-248.1 -1796.9,-428.4 -2693.9,-295.6 -1712.9,253.4 -3102.1,1547.4 -4274.9,2725.1 -1366.1,1371.9 -2606.8,2911.6 -4172.8,4067.9 -696.3,514.2 -1477.4,949.4 -2336.8,1109 -909.3,168.9 -1886.8,23 -2772.07,-207.9 C 7492.44,16477 5621.19,15289.1 3746.55,14235.8 1770.02,13125.3 -334.086,12037.6 -2655.29,12024.5 c 18.02,193.3 35.06,386.6 50.97,580 2382.625,11.2 4580.08,1097.4 6644.97,2179.2 1977.96,1036.4 3954.56,2205.9 6139.75,2750.8 892.4,222.5 1883.2,376.6 2797.8,203.4 825.7,-156.4 1568.1,-587.4 2219.7,-1104.4 1451.5,-1151.5 2549.4,-2686.8 3783.8,-4052.5 1067.7,-1181.4 2352.5,-2466.4 4000.5,-2714.3 905.6,-136.3 1856.4,52.4 2727.6,295.6 1143.8,319.3 2242.8,789.6 3314.9,1295.3 2399,1131.6 4687.8,2480.6 7077.8,3630.2 1950,937.9 4188.9,1972.3 6411.2,1739.1 820.2,-86 1594.8,-373.9 2277.3,-835.4 653.2,-441.8 1204.4,-1010.6 1749.5,-1575.4 571.4,-591.9 1146.7,-1190.4 1835.9,-1647.7 862.9,-572.6 1841.2,-828.8 2872.1,-835.2"
         style="fill:#2c6a9a;fill-opacity:1;fill-rule:nonzero;stroke:none"
         transform="matrix(0.13333333,0,0,-0.13333333,0,4266.6667)" />
      <path
         id="path21"
         d="m 51070,10824 c -33.4,-185.5 -67.7,-370.9 -102.7,-556.1 -1120.2,10.5 -2176.1,309.6 -3143,873.3 -820.4,478.5 -1545.5,1097.4 -2268,1708.7 -1383.4,1170.6 -2836,2302.5 -4702.5,2492.3 -2088.2,212.2 -4086.3,-770.4 -5853.8,-1768.8 C 32955.1,12418.3 31034,11055.9 28973.7,9927.2 27353,9039.3 25410.1,8091.3 23504.8,8361.6 c -1871.7,265.5 -3485,1578.6 -4882.4,2758.8 -1642.6,1387.4 -3178.9,2940.4 -4996.3,4105.4 -779.4,499.6 -1630.9,930.8 -2548.8,1098.9 -918.5,168.1 -1888.98,37.8 -2777.48,-224.3 C 4361.53,14939 1552.77,10998.2 -2765.72,10958.8 c 20.09,182.9 39.8,365.9 58.98,548.9 4452.76,31.5 7568.79,3917.6 11675.49,5061.2 897.5,249.9 1885.45,392 2810.05,217.9 876,-164.9 1680.9,-592.7 2409.2,-1093.3 1686.3,-1159.4 3068.2,-2707.4 4565.3,-4088.4 1279.1,-1179.8 2775.3,-2486.6 4562.3,-2746.2 889.9,-129.2 1810.6,43.2 2663,297.5 1040.3,310.4 2032.5,769.2 2995,1266.7 2183.6,1128.6 4237.9,2487.8 6407.2,3642.5 1838.3,978.5 3928.4,1984.2 6069.5,1767.7 1804.7,-182.5 3166.6,-1288.8 4462.8,-2460.7 669.2,-604.9 1341.1,-1216.8 2114.1,-1688.5 929,-566.7 1955.5,-851.5 3042.8,-860.1"
         style="fill:#2c6a9a;fill-opacity:1;fill-rule:nonzero;stroke:none"
         transform="matrix(0.13333333,0,0,-0.13333333,0,4266.6667)" />
      <path
         id="path22"
         d="m 50861.9,9720.6 c -34.2,-176.2 -68.5,-352.4 -102.6,-528.7 -1189.1,14.7 -2311.1,341.2 -3354.7,903.7 -918,494.8 -1750.7,1128.3 -2581.4,1754.1 -1558.9,1174.3 -3199.6,2352.8 -5201.6,2550.2 -1989.2,196.2 -3804.3,-749.5 -5426.3,-1797.6 -1797.7,-1161.6 -3452.4,-2532 -5273.2,-3659.1 C 27447.9,8030.8 25728,7174.9 23942.3,7397 c -2053.1,255.4 -3905.6,1577.4 -5537.5,2755.6 -1940.6,1401.2 -3785.8,2967.7 -5872.4,4154.1 -902.7,513.2 -1872.9,964.8 -2904.46,1136.9 -887.69,148.2 -1805.26,45.1 -2657.18,-235.3 -3621.2,-1191.9 -5777.05,-5254.6 -9855.83,-5311.1 19.55,173.9 39.22,347.8 58.88,521.6 4188.42,48 6672.62,4042.9 10441.74,5224 878.66,275.3 1831.81,393.1 2743.75,230.8 961.8,-171.2 1861.4,-605.7 2693.1,-1104.6 1952.2,-1171.2 3644.1,-2728.9 5434.5,-4122.7 1517.8,-1181.6 3249,-2499.5 5210.9,-2771.8 1864,-258.7 3712.1,655.9 5274.1,1567 1935.5,1129.1 3720.5,2494.3 5639.4,3650.1 1693.7,1020.2 3596.7,1977.7 5631.4,1769.7 1931.4,-197.4 3476.9,-1353.6 4947.6,-2524.4 776.6,-618.2 1555.8,-1243.5 2424.7,-1729.3 1004.9,-561.8 2093.2,-874.4 3246.9,-887"
         style="fill:#2c6a9a;fill-opacity:1;fill-rule:nonzero;stroke:none"
         transform="matrix(0.13333333,0,0,-0.13333333,0,4266.6667)" />
      <path
         id="path23"
         d="m 50650.6,8617.9 c -30.8,-167.8 -61,-335.7 -90.2,-503.9 -4708.4,70.4 -7515.6,4877.5 -12094.5,5333.9 C 36573,13636.5 34936,12747.7 33463.1,11648.1 31904.6,10484.6 30514,9110.2 28928.4,7981.7 c -1353.9,-963.6 -2908.1,-1753.9 -4616.6,-1549 -1051.5,126 -2059.4,523.1 -3007.3,979.6 C 20215.4,7936.9 19178,8564.6 18158.8,9212.6 15937,10625 13798.4,12199 11449.2,13399.7 9668.04,14310.1 7645.55,15031.9 5673.99,14300.2 4096.22,13714.7 2940.42,12421.7 1762.91,11278.7 1145.46,10679.4 502.727,10093.7 -234.387,9643.4 -1078.83,9127.5 -2009.33,8851.3 -2999.24,8833.2 c 16.66,166 33.91,331.8 51.77,497.6 1997.978,32.7 3567.599,1140.6 5012.5,2412.5 1283.47,1129.9 2549.52,2404.7 4198.06,2983.7 840.17,295.1 1742.55,385.1 2622.38,242 1078.65,-175.4 2099.53,-630.4 3056.53,-1143 2229,-1193.8 4234,-2764.6 6327.5,-4172 961.2,-646.2 1942,-1272.1 2977.6,-1793.6 908.6,-457.6 1879.7,-851.4 2896.5,-975.3 1743.2,-212.3 3371.2,608.6 4780.7,1547.8 1692.7,1127.7 3204.5,2500.4 4871.9,3663 1541.5,1074.8 3258.4,1990.8 5194.1,1798.8 2071.9,-205.6 3806.9,-1408.1 5454.6,-2583.5 1876.9,-1339 3812.8,-2660.1 6205.7,-2693.3"
         style="fill:#2c6a9a;fill-opacity:1;fill-rule:nonzero;stroke:none"
         transform="matrix(0.13333333,0,0,-0.13333333,0,4266.6667)" />
      <path
         id="path24"
         d="m 50462.5,7510.6 c -24.2,-160.1 -46.6,-320.5 -67.4,-481.1 -4935.1,79.5 -8101.1,4977.1 -12921.5,5441.6 -857.7,82.6 -1684.1,-26.3 -2476.2,-371.7 -770.3,-335.9 -1458.4,-837.7 -2095,-1380.4 C 31540,9557.4 30382.5,8175.3 29000.3,7035.7 27722.9,5982.4 26257.3,5233.1 24561.1,5450.1 c -1064.6,136.1 -2091.6,518.2 -3068,949.9 -1248.9,552.2 -2446.5,1216.4 -3627.6,1899.6 -2415.7,1397.3 -4763.7,2938.5 -7289.2,4136 -1805.19,855.9 -3996.64,1731.5 -5974.62,930.3 -1461.54,-592 -2406.17,-1923.2 -3382.06,-3092 -511.741,-613 -1052.429,-1216.1 -1708.468,-1678.8 -775.382,-546.8 -1659.132,-815.6 -2605.222,-835 11.9,158.9 24.73,317.7 38.68,476.5 963.67,19.1 1865.82,292.4 2669.417,826.5 689.586,458.3 1273.371,1054.6 1829.743,1662.7 1060.72,1159.4 2096.12,2475.1 3605.97,3062.5 1981.05,770.8 4105.64,-49.1 5904.26,-929.9 2431.7,-1190.8 4676.4,-2730.6 6992.4,-4124.3 1133.7,-682.2 2285.2,-1345 3490.3,-1894.1 950.7,-433.2 1953.6,-812.8 2995.5,-947.1 1721.2,-222 3235.3,555.7 4559.6,1584.5 1466.3,1139.1 2723.2,2519.8 4171.1,3680.7 674.8,541.1 1397.5,1041.7 2197.7,1379.4 804.3,339.3 1639.9,455.1 2507.5,371.7 4727.5,-454.4 7748.5,-5321.9 12594.4,-5398.6"
         style="fill:#2c6a9a;fill-opacity:1;fill-rule:nonzero;stroke:none"
         transform="matrix(0.13333333,0,0,-0.13333333,0,4266.6667)" />
      <path
         id="path25"
         d="m 50324.2,6393.3 c -13.6,-153.3 -25.7,-306.5 -36,-460.1 -2628.6,39.5 -4940.2,1506.6 -7119.9,2820.2 -1946.4,1173 -4012.9,2467.6 -6328.4,2690.7 -846,81.5 -1671,-16.7 -2447.8,-372.4 -724,-331.5 -1355.8,-834.3 -1927.8,-1382 C 31251,8528.1 30276.4,7140.8 29040.2,6001.6 28476.7,5482.3 27852.8,5014.3 27143.2,4714.4 26390.4,4396.3 25587.9,4310.8 24780,4414 c -1093.4,139.7 -2151.3,527.1 -3161.4,953.7 -1323.5,559 -2600.5,1225.2 -3863.1,1908.9 -2592.1,1403.4 -5123.4,2944 -7814.02,4156.7 -1812.1,816.8 -4102.62,1777 -6074,932.6 C 2476.83,11770.2 1695.24,10410.7 870.672,9223 438.98,8601.2 -26.0273,7986.1 -626.527,7516.4 c -734.533,-574.5 -1603.523,-828 -2528.933,-845.1 5.92,152.6 12.83,305.1 20.69,457.6 930.39,18.5 1800.74,279.3 2547.68,842.6 C 32.7813,8438.9 525.352,9049.6 986.434,9668 1866.24,10848.1 2708,12197.2 4121.24,12792.7 c 1973.38,831.5 4233.85,-101.4 6043.86,-931.4 2630.6,-1206.3 5094.8,-2747.8 7622.5,-4149.2 1233.4,-683.7 2481.9,-1349.3 3778.9,-1905.5 1000.7,-429.1 2050.1,-814.3 3135.9,-952.6 1669.8,-212.8 3092.8,504.3 4317.1,1586.8 1289,1139.5 2332.1,2524.3 3599.2,3686.3 594.7,545.4 1246,1047.9 1985.3,1381.5 780.7,352.2 1602.8,453.8 2451.5,371.9 2292.1,-221.1 4322.5,-1502.5 6239,-2678.9 2151.8,-1320.9 4421.3,-2767 7029.7,-2808.3"
         style="fill:#2c6a9a;fill-opacity:1;fill-rule:nonzero;stroke:none"
         transform="matrix(0.13333333,0,0,-0.13333333,0,4266.6667)" />
      <path
         id="path26"
         d="m 50262.1,5260.7 c -1.2,-145.3 -0.1,-290 5.3,-435.3 -2632.3,46.8 -4987.8,1535.5 -7188.6,2824.8 -1974.6,1156.8 -4077.2,2461.1 -6406,2694 -849.3,85 -1688.4,-22.2 -2467.2,-381 -712.3,-328.3 -1329.6,-828.3 -1882.2,-1378.7 -1156.7,-1152 -2057.6,-2534.7 -3238.8,-3663.9 -1162.6,-1111.4 -2596.2,-1814.2 -4235,-1590 -1090.1,149.1 -2145.2,539.5 -3155.6,960.7 -1346.8,561.5 -2650.7,1223.6 -3942,1901.3 -2657.9,1395 -5260.3,2918.2 -8007.64,4135 -1817.38,804.9 -4104.71,1791.5 -6078.48,940.7 C 2291.4,10675.9 1566.51,9316.8 791.91,8121.8 388.023,7498.7 -51.707,6882.1 -635.281,6413.5 -1366.86,5825.9 -2246.7,5582.2 -3175.02,5563.5 c 3.35,145.7 3.9,291.4 4.61,437.2 929.05,13.5 1810.22,253.9 2541.512,843.4 583.6832,470.5 1021.32,1090.5 1422.839,1716.4 769.339,1199.2 1488.809,2568.7 2866.479,3160 1972.93,846.9 4268.21,-128.4 6083.37,-935.1 C 12493.6,9563.3 15093.7,8026.2 17751,6621 c 1290.6,-682.5 2594.2,-1349 3942.1,-1912 1009.8,-421.7 2066.3,-812 3157.4,-953.5 1644.7,-213.2 3065.5,468.4 4231.8,1588.4 1184.3,1137.3 2085.3,2529.6 3244.9,3689.9 551.8,552.2 1168.9,1054.7 1882.4,1382.5 779.2,357.8 1618,454.7 2466.6,373.4 2331.3,-223.6 4430.8,-1535.3 6400.3,-2700.2 2197,-1299.4 4548.7,-2794.9 7185.6,-2828.8"
         style="fill:#2c6a9a;fill-opacity:1;fill-rule:nonzero;stroke:none"
         transform="matrix(0.13333333,0,0,-0.13333333,0,4266.6667)" />
      <path
         id="path27"
         d="m 50337.8,4169.2 c 20.5,-121.4 45,-242.1 73.4,-361.8 -2602.9,79.4 -4945.2,1475.9 -7156.4,2713.9 -1985.2,1111.4 -4074.9,2344.3 -6378.4,2608.1 -3598.5,412 -5515.6,-3142 -7859.9,-5186.9 -1191.6,-1039.4 -2649.3,-1764 -4264.6,-1527.1 -1075.8,157.8 -2118.4,528.5 -3122,935.3 C 20324,3880 19057.3,4503.2 17802.5,5142.8 15172.5,6483.4 12596.5,7952.5 9878.9,9113.2 8058.59,9890.7 5848.49,10808.4 3894.39,9970.9 2520.86,9382.2 1696.91,8103.6 825.008,6959.9 371.762,6365.3 -114.031,5782.3 -720.738,5337.4 -1470.34,4787.8 -2342.26,4535.1 -3265.18,4501.9 c 17.73,127.7 33.1,255.7 46,384 923.04,29.9 1793.98,282.4 2532.621,848.7 595.3871,456.4 1060.766,1054.3 1492.332,1661.7 828.517,1166 1609.897,2480.8 2980.317,3073.4 1963.89,849.1 4211.44,-111.4 6031.82,-903 C 12576.6,8367 15190,6856.4 17861.2,5479.6 c 1217.7,-627.7 2447.1,-1239.1 3713.1,-1764.4 1053.1,-436.9 2151.3,-840.7 3286.4,-995.5 1579.1,-215.3 2999.4,502.4 4146.5,1535.7 2315.5,2085.7 4134,5734.2 7766,5334.2 2315,-254.9 4410.3,-1518.3 6392.2,-2650.5 2208.3,-1261.5 4555.8,-2697.7 7172.4,-2769.9"
         style="fill:#2c6a9a;fill-opacity:1;fill-rule:nonzero;stroke:none"
         transform="matrix(0.13333333,0,0,-0.13333333,0,4266.6667)" />
      <path
         id="path28"
         d="m 50590.2,3199 c 36.9,-102.6 75.1,-204.1 115.1,-305.6 -2553.9,76 -4878.3,1340.6 -7092.8,2492.9 -2024.4,1053.4 -4138.5,2211.9 -6446.3,2455.8 -3552.4,375.5 -5722,-2889.9 -8249.1,-4776.2 -1255.6,-937.2 -2742.4,-1600.1 -4337.8,-1382 -1087.4,148.6 -2143.7,504 -3163.2,899.5 C 20231,3043.1 19077,3580.4 17933.5,4134.1 15386.4,5367.6 12891.4,6730.4 10263.4,7788.8 8430.35,8527.1 6341.66,9290.3 4389.05,8564 2974.82,8038 1988.56,6880.4 976.699,5818.6 428.43,5243.2 -147.91,4683 -827.352,4263.1 -1625.38,3769.9 -2515.3,3531.5 -3449.59,3498.7 c 25,113.4 49.05,226.7 72.17,340.5 929.28,34.4 1811.57,280.2 2590.9,795.2 647.985,428.2 1187.602,994.6 1697.278,1575.2 970.642,1105.6 1909.512,2327.3 3331.222,2868.3 1972.87,750.7 4120.5,-96.7 5958.32,-860.8 2627.6,-1092.6 5124.7,-2476 7673.3,-3735.6 1192.5,-589.5 2396.2,-1162.2 3634.3,-1650.5 1010.4,-398.4 2057.7,-758.3 3137.1,-911.6 1603,-227.7 3081.1,464.5 4312.5,1441.5 2428.4,1926.6 4511.6,5298.9 8035.4,4938.6 2325.7,-237.9 4449.4,-1435.1 6473.4,-2518.4 2216,-1186 4549.1,-2501.6 7123.9,-2582.1"
         style="fill:#2c6a9a;fill-opacity:1;fill-rule:nonzero;stroke:none"
         transform="matrix(0.13333333,0,0,-0.13333333,0,4266.6667)" />
      <path
         id="path29"
         d="m 50964.3,2313.2 c 43.3,-89.1 87.7,-177.7 133.1,-265.8 -4886.7,99 -8702.3,4012.1 -13513.1,4452.5 C 34030.5,6825.3 31609.6,3994.2 28840,2289 27490.7,1458.3 25961.9,891.5 24356.9,1072.7 c -2206,249 -4329,1223.1 -6331.3,2125.4 -2376.7,1071 -4707.9,2261.8 -7152.9,3173.8 -1870.42,697.7 -3891.97,1299 -5868.16,691.2 C 3489.82,6597.2 2305.52,5541.5 1094.9,4568.6 454.102,4053.7 -209.914,3558.5 -949.617,3193.2 -1811.97,2767.4 -2735.48,2556.1 -3695.5,2533.8 c 28.5,101.8 56.36,203.9 83.46,306.1 950.73,26.5 1863.6,247.4 2704.556,696.3 719.507,384 1354.765,900.8 1965.484,1436.6 1153.27,1011.8 2281.45,2111.7 3777.52,2590.2 1948.24,623.1 3959.51,-18.3 5797.08,-720.2 2508.2,-958.1 4895.3,-2206.6 7329.2,-3333 1143.1,-529 2296.9,-1040.8 3481.9,-1469.6 966.3,-349.7 1964.4,-656.3 2987.8,-780.8 1607.4,-195.6 3128.8,411.6 4450.6,1284 2660.4,1755.9 4996.9,4714.3 8511,4395 4855.1,-441.2 8642,-4507 13571.2,-4625.2"
         style="fill:#2c6a9a;fill-opacity:1;fill-rule:nonzero;stroke:none"
         transform="matrix(0.13333333,0,0,-0.13333333,0,4266.6667)" />
      <path
         id="path30"
         d="m 51404.2,1472.9 c 52.4,-95.9 78.8,-143.8 131.2,-239.7 -4797.9,31.9 -8726.2,3540.1 -13459.6,3898.7 C 36285.7,5267.5 34618.8,4771.1 33040,3958.1 31595.4,3214.2 30254.6,2283.9 28797.1,1563.7 27315.5,831.602 25719.8,375.301 24054.9,522.5 21984.6,705.402 19980.5,1522.4 18075.4,2303 15885.1,3200.6 13731.9,4206.3 11483.7,4955.4 9598.63,5583.6 7632.53,6000.9 5664.4,5516.4 4065.36,5122.8 2693.01,4213.1 1305.87,3365.7 572.398,2917.6 -176.508,2488.6 -976.602,2169.6 c -958.468,-382 -1961.958,-575.8 -2993.548,-582.9 27.43,93.2 54.9,186.3 82.3,279.5 1002.08,11.8 1973.91,208.1 2897.483,598.6 799.859,338.2 1539.039,797.6 2260.587,1276.8 1335.18,886.8 2656.48,1835.5 4231.8,2242.8 1944.75,502.8 3894.42,45 5750.68,-592.7 2308.2,-793.1 4514.9,-1853.7 6760,-2804 1944.2,-823 3992.8,-1693.802 6114.6,-1902.598 1663.6,-163.602 3255.3,333.598 4710.9,1107.998 1433.4,762.6 2739.1,1739.2 4161.4,2520.9 1516.4,833.3 3140.6,1359.7 4887.7,1226.6 4773.9,-363.7 8679.2,-4015.4 13516.9,-4067.7"
         style="fill:#2c6a9a;fill-opacity:1;fill-rule:nonzero;stroke:none"
         transform="matrix(0.13333333,0,0,-0.13333333,0,4266.6667)" />
      <path
         id="path31"
         d="M 51853.5,639.199 C 51899.6,549.801 51922.4,504.902 51967,414.5 47212.5,384.199 43151.9,3546.9 38441.7,3775 36639.3,3862.3 34942.5,3484.7 33276.8,2814.7 31717.5,2187.4 30232.5,1388.8 28661.9,788.102 27100.2,190.801 25491.4,-133.797 23814.7,-41.6992 21861.4,65.6016 19954.8,736.102 18131.5,1397.9 16079.3,2142.8 14056.7,2989.1 11953.1,3583.4 10110.4,4104.1 8210.01,4343.4 6313.27,3977.1 4581.2,3642.5 3006.3,2844.3 1419.03,2109.1 -384.973,1273.5 -2227.12,621.102 -4240.78,637.102 c 27.97,103.898 42.25,155.699 71.18,259.101 1994,-8.703 3794.983,671.297 5554.58,1548.797 1541.33,768.7 3069.76,1601.6 4773.61,1949.8 1915.54,391.4 3828,107.6 5681.31,-442.8 2151.6,-639.1 4217.5,-1533.3 6316.2,-2321.2 C 20004.5,936.801 21944.4,225.703 23933.8,112.402 25604.9,17.1016 27204,382.5 28741.9,1018.2 c 1546.2,639.1 2999.3,1478.9 4537.9,2134.8 1628.2,694.1 3299.5,1088.2 5077.4,987.9 C 43068.8,3875.1 47091.8,624 51853.5,639.199"
         style="fill:#2c6a9a;fill-opacity:1;fill-rule:nonzero;stroke:none"
         transform="matrix(0.13333333,0,0,-0.13333333,0,4266.6667)" />
      <path
         id="path32"
         d="m 52256.2,-226.898 c 34.8,-86.301 51.6,-129.899 83.8,-217.903 C 47656.7,-511 43512.4,2265.3 38865.4,2442.3 37014.1,2512.8 35247.8,2224.1 33484.2,1669.8 31852.3,1157.1 30269.3,500 28630.8,7.60156 26981.6,-488.102 25326.7,-727.801 23604,-676.898 21792.8,-623.301 20013.5,-109.598 18295.6,427 16364.5,1030.1 14458.4,1729.8 12488.2,2199.7 10687.4,2629.1 8831.42,2772.4 6992.81,2507.6 5128.76,2239.3 3370.92,1552 1608.67,918.703 -361.121,210.902 -2361.64,-370.098 -4474.64,-335.301 c 20.2,97.801 30.74,146.504 52.54,243.301 2102.04,-31.898 4076.776,573.203 6020.15,1315.6 1696.16,648.1 3387.74,1347.7 5191.97,1633 1895.25,299.6 3803.48,127.9 5655.28,-339.7 1970.6,-497.6 3875.8,-1218.9 5806.8,-1845.998 1743.6,-566.402 3553.6,-1116.902 5399,-1180.8 1723.3,-59.7 3375.9,201.597 5015.8,726.296 1624.5,519.903 3187.5,1211.302 4806,1748.302 1718.7,570.3 3440.3,869.6 5254.4,803.8 4677.9,-169.7 8815.4,-3056.5 13528.9,-2995.398"
         style="fill:#2c6a9a;fill-opacity:1;fill-rule:nonzero;stroke:none"
         transform="matrix(0.13333333,0,0,-0.13333333,0,4266.6667)" />
      <path
         id="path33"
         d="m 52556,-1164.2 c 20,-85.6 29.2,-128.9 46.1,-216.7 -4652.9,-55.5 -8878.6,2408.4 -13504.5,2552.5 C 37239.3,1229.5 35441.2,976.898 33642.1,522 31948.5,93.8008 30287.2,-453.102 28589.5,-866.102 26907,-1275.4 25229.6,-1479.1 23497.6,-1448.1 21740.9,-1416.6 20010,-1004.1 18321.5,-550 16509.7,-62.6992 14716.4,505.602 12875.8,878.301 11059.7,1245.9 9196.67,1343.1 7355.34,1111.1 3283.98,598.203 -477.027,-1409.4 -4638.98,-1350.9 c 10.56,92.9 16.35,139 28.86,230.7 4140.796,-65.4 7843.93,2005.399 11887.11,2529 1844.33,238.8 3713.11,136.8 5530.21,-243.6 1863.1,-389.899 3675.6,-983.001 5507.7,-1491.798 1697.4,-471.402 3441.6,-904.802 5212.4,-935.102 1729.8,-29.7 3398.9,174.9 5075.6,600.501 1684.4,427.699 3329,995.301 5008.9,1438.801 1792.8,473.398 3581.5,727.698 5438,670.498 4632.8,-142.9 8845.2,-2675.3 13506.2,-2612.3"
         style="fill:#2c6a9a;fill-opacity:1;fill-rule:nonzero;stroke:none"
         transform="matrix(0.13333333,0,0,-0.13333333,0,4266.6667)" />
      <path
         id="path34"
         d="m 52696.9,-2211.6 c -4621.8,1 -8878.1,2238.1 -13475.4,2423.702 -3682.4,148.601 -7184.6,-1117.403 -10736.6,-1882.502 -1681.4,-362.2 -3384.5,-597.3 -5107.9,-535.2 -1725.3,62.3 -3425,424.1 -5096.4,834.1 -1754.8,430.398 -3495.5,927.703 -5273.5,1257.203 C 11188,222.801 9354.15,324.902 7514.66,97.8008 3392.2,-411.102 -502.566,-2212.5 -4698.44,-2210.3 c -2.06,-87.3 -2.6,-131.2 -2.6,-219.7 4228.212,20.8 8167.6,1807.602 12328.08,2306.898 1839.04,220.602 3660.36,96.7036 5476.86,-242.597 1763.9,-329.602 3493.1,-815.001 5236.5,-1234.401 1668.7,-401.3 3363.2,-751.3 5082.9,-818.5 1716.7,-67 3423.6,191.4 5098,548.7 3536.3,754.5 7066.7,2021.201 10729.9,1854.4 4584.7,-208.699 8840.3,-2391.9 13449.8,-2414.5 0,88.5 -0.8,132.2 -4.1,218.4"
         style="fill:#2c6a9a;fill-opacity:1;fill-rule:nonzero;stroke:none"
         transform="matrix(0.13333333,0,0,-0.13333333,0,4266.6667)" />
    </g>
  </g>
</svg>
